<?xml version="1.0" encoding="UTF-8"?>
<!DOCTYPE svg PUBLIC "-//W3C//DTD SVG 1.1//EN" "http://www.w3.org/Graphics/SVG/1.1/DTD/svg11.dtd">
<!-- Creator: CorelDRAW 2021 (64-Bit) -->
<svg xmlns="http://www.w3.org/2000/svg" xml:space="preserve" width="44.0875mm" height="50mm" version="1.1" style="shape-rendering:geometricPrecision; text-rendering:geometricPrecision; image-rendering:optimizeQuality; fill-rule:evenodd; clip-rule:evenodd"
viewBox="0 0 668.42 758.06"
 xmlns:xlink="http://www.w3.org/1999/xlink"
 xmlns:xodm="http://www.corel.com/coreldraw/odm/2003">
 <defs>
  <style type="text/css">
   <![CDATA[
    .fil0 {fill:white;fill-rule:nonzero}
   ]]>
  </style>
 </defs>
 <g id="Layer_x0020_1">
  <metadata id="CorelCorpID_0Corel-Layer"/>
  <path class="fil0" d="M60.83 682.28l-60.83 -682.28 668.42 0 -60.89 682.17 -273.72 75.89 -272.97 -75.78zm273.09 -459.13l0.29 0 201.57 0 0.27 0 1.68 -18.81 3.81 -42.42 2 -22.45 -209.33 0 -0.29 0 -209.54 0 2 22.45 20.57 230.6 186.97 0 0.29 0 102.75 0 -9.71 108.52 -93.33 25.19 0 0 -0.08 0.02 -93.19 -25.16 -5.96 -66.74 -45.28 0 -38.72 0 11.72 131.39 171.41 47.58 0.39 -0.11 0 -0.02 171.26 -47.46 1.26 -14.14 19.66 -220.3 2.04 -22.47 -22.55 0 -171.67 0 -0.29 0 -110.44 0 -7.65 -85.69 118.09 0z"/>
 </g>
</svg>
