<?xml version="1.0" encoding="UTF-8"?>
<!DOCTYPE svg PUBLIC "-//W3C//DTD SVG 1.1//EN" "http://www.w3.org/Graphics/SVG/1.1/DTD/svg11.dtd">
<!-- Creator: CorelDRAW 2021 (64-Bit) -->
<svg xmlns="http://www.w3.org/2000/svg" xml:space="preserve" width="44.125mm" height="50mm" version="1.1" style="shape-rendering:geometricPrecision; text-rendering:geometricPrecision; image-rendering:optimizeQuality; fill-rule:evenodd; clip-rule:evenodd"
viewBox="0 0 407.91 462.22"
 xmlns:xlink="http://www.w3.org/1999/xlink"
 xmlns:xodm="http://www.corel.com/coreldraw/odm/2003">
 <defs>
  <style type="text/css">
   <![CDATA[
    .fil0 {fill:white}
   ]]>
  </style>
 </defs>
 <g id="Layer_x0020_1">
  <metadata id="CorelCorpID_0Corel-Layer"/>
  <path class="fil0" d="M-0 0l407.91 0 -37.42 415.88 -166.53 46.34 -166.83 -46.27 -37.13 -415.95zm76.34 80.96l114 0 -0.15 285.7 -127.12 -25.38 -7.34 -79.83 51.29 -0.1 3.6 40.63 28.4 4.08 0.05 -173.53 -58.01 -0.02 -4.72 -51.53zm271.52 51.35l4.53 -50.92 -134.17 0.1 0.03 154.31 69.26 -0.12 -6.11 66.21 -63.26 11.69 0.01 53.04 111.08 -25.29 14.12 -156.61 -71.84 0.08 -0.01 -52.32 76.35 -0.18z"/>
 </g>
</svg>
