<?xml version="1.0" encoding="UTF-8"?>
<!DOCTYPE svg PUBLIC "-//W3C//DTD SVG 1.1//EN" "http://www.w3.org/Graphics/SVG/1.1/DTD/svg11.dtd">
<!-- Creator: CorelDRAW 2021 (64-Bit) -->
<svg xmlns="http://www.w3.org/2000/svg" xml:space="preserve" width="51.6326mm" height="51.6326mm" version="1.1" style="shape-rendering:geometricPrecision; text-rendering:geometricPrecision; image-rendering:optimizeQuality; fill-rule:evenodd; clip-rule:evenodd"
viewBox="0 0 469.38 469.38"
 xmlns:xlink="http://www.w3.org/1999/xlink"
 xmlns:xodm="http://www.corel.com/coreldraw/odm/2003">
 <defs>
  <style type="text/css">
   <![CDATA[
    .fil0 {fill:white}
   ]]>
  </style>
 </defs>
 <g id="Layer_x0020_1">
  <metadata id="CorelCorpID_0Corel-Layer"/>
  <g id="_1567930826832">
   <path class="fil0" d="M66.47 124.22l10.08 0.46c4.03,0.22 6.64,-0.47 10.07,-0.48 3.39,-0.01 7.23,0.2 10.56,0.02l30.26 -1.82c2.74,-0.02 9.6,-1.97 12.65,2.45 2.52,3.66 2.21,9.27 -1.84,12.03 -2.44,1.67 -4.75,1.32 -8.27,1.81l-18.6 1.57c0.16,1.92 1.35,4.75 2.01,6.7l16.04 47.67c6.13,18.39 12.18,36.08 18.34,54.55 6.13,18.37 12.18,36.09 18.34,54.55l13.75 40.8c0.84,2.53 4.26,12.06 4.41,13.92 1.44,-1.06 5.31,-14.32 5.9,-16.1 1.85,-5.57 3.69,-11.08 5.5,-16.5l22.12 -66.35c1.28,-3.84 10.94,-32 10.94,-33.52l-31.22 -85.21c-1.36,-1.59 -4.81,-0.71 -8.4,-1.23 -3.09,-0.45 -5.68,-0.42 -8.78,-0.85 -4.26,-0.59 -8.26,-0.18 -10.45,-4.21 -2.78,-5.12 -0.32,-12.72 7.97,-12.59l17.15 1.22c4.25,0.64 20.85,1.11 26.39,1.11 5.82,-0 5.39,0.37 8.7,0.48 3.1,0.11 5.15,-0.5 8.71,-0.49 2.91,0.01 6.32,0.16 9.17,0l25.93 -1.57c6.78,-1.02 18.99,-2.71 18.99,7.07 0,10.56 -11.72,8.55 -20.96,9.75 -1.52,0.2 -2.53,0.3 -4.72,0.32 -2.52,0.02 -2.72,0.47 -5.03,0.47l71.78 213.33c0.53,1.68 0.4,2.18 1.56,3.03 0.18,-2.2 1.65,-5.91 2.2,-7.89 0.79,-2.86 1.59,-5.34 2.45,-8.1 1.66,-5.36 3.15,-10.64 4.82,-16.26l9.73 -32.44c5.86,-18.33 16.1,-48.68 16.1,-67.78 0,-32.35 -13.87,-48.83 -26.73,-71.82 -9.64,-17.24 -15.29,-36.78 -1.38,-53.92 2.41,-2.97 1.94,-2.57 4.79,-4.84 6.31,-5.01 12.3,-7.39 22.86,-7.39 -1.21,-1.81 -5.3,-5.19 -7.13,-6.62 -30.39,-23.63 -57.28,-37.22 -96.06,-43.74 -37.27,-6.26 -74.38,-1.28 -108.57,12.31 -8.96,3.56 -19.5,8.98 -27.76,13.95 -14.29,8.6 -27.66,19.24 -39.27,30.86 -2.47,2.47 -4.24,4.67 -6.66,7.1l-6.52 7.69c-2.1,2.68 -4.13,5.07 -6.22,7.99 -1.99,2.77 -4.15,5.6 -5.69,8.52z"/>
   <path class="fil0" d="M11 239.27c0,-28.73 3.15,-52.82 12.43,-78.33 2.38,-6.54 4.75,-13.38 7.89,-19.62 3.78,-7.52 7.42,-14.95 11.74,-22.18l16.99 -24.27c2.97,-3.8 6.08,-7.72 9.5,-11.12 1.2,-1.2 2.35,-2.19 3.44,-3.43l10.09 -10.08c4.52,-4.57 9.73,-8.78 14.88,-12.62 9.35,-6.98 18.91,-13.23 29.03,-19.1 7.23,-4.19 15.19,-7.86 22.96,-10.96 54.7,-21.82 114.01,-22.17 168.81,-0.26 3.37,1.35 6.46,2.58 9.59,4.17l17.87 9.18c3.04,1.68 5.66,3.49 8.54,5.21 2.67,1.59 5.65,3.66 8.2,5.55 2.74,2.02 5.21,3.79 7.93,5.82 7.76,5.8 15.18,12.33 22.05,19.2 2.4,2.4 4.04,4.53 6.42,6.87 7.76,7.65 18.57,22.14 23.98,31.02l5.15 8.6c3.52,5.86 6.32,12 9.41,18.09 3.16,6.21 5.58,12.47 7.81,19.23 2.38,7.22 4.39,13.46 6.34,21.17 8.22,32.59 8.35,73.47 0.09,106.16 -1.97,7.79 -3.92,13.95 -6.32,21.19 -2.2,6.65 -4.78,13.4 -7.92,19.58 -3.82,7.52 -7.43,14.89 -11.76,22.16 -5.05,8.48 -10.93,16.49 -17.02,24.24 -1.12,1.42 -1.92,2.48 -3.13,3.75 -1.28,1.35 -1.85,2.26 -3.21,3.66l-9.85 10.78c-14.99,15.01 -32.34,27.73 -50.85,38.08 -1.64,0.92 -2.91,1.37 -4.54,2.34 -7.96,4.77 -24.37,11.61 -33.56,14.12l-16.05 4.58c-44.97,11.35 -94.36,7.21 -137.35,-9.98l-13.88 -6.29c-2.07,-0.88 -2.83,-1.15 -4.63,-2.25 -2.9,-1.77 -5.92,-3.09 -8.89,-4.87l-8.6 -5.15c-8.71,-5.23 -23.58,-16.34 -31.08,-23.93l-18.31 -18.82c-6.83,-8.12 -13.64,-16.61 -19.19,-25.73l-5.15 -8.6c-8.85,-14.72 -15.99,-31.06 -20.62,-47.68 -5.3,-19.02 -9.26,-37.18 -9.26,-59.49zm-11 -10.08c0,23.2 1.41,40.5 6.69,61.61 4.59,18.36 11.17,35.06 19.59,51.92 6.21,12.44 13.93,24.04 22.3,34.99 5.12,6.69 10.63,13.21 16.62,19.13 1.51,1.49 2.05,2.48 3.42,3.91l14.91 13.51c4.67,4.35 11.04,9.08 16.29,12.59l17.37 11.05c32.26,19.39 74.65,31.48 111.99,31.48 12.33,0 25.68,-0.31 37.39,-2.03 16.04,-2.36 30.49,-5.91 45.74,-11.09 23.6,-8.02 45.3,-20.42 65.12,-35.27 6.85,-5.13 12.96,-10.85 19.16,-16.59 0.93,-0.86 1.13,-0.85 2.05,-1.62 3.25,-2.72 5.72,-6.17 8.73,-9.14 8.46,-8.37 18.16,-22.22 24.77,-32.07 3.85,-5.74 7.38,-11.73 10.48,-17.94 5.72,-11.47 10.98,-22.76 15,-34.96 7.01,-21.29 11.74,-44.93 11.74,-67.56 0,-27.16 -1.45,-37.86 -6.76,-62.92 -2.44,-11.5 -6.24,-21.58 -10.46,-32.17 -7.8,-19.58 -18.81,-37.56 -31.37,-54.35 -2.92,-3.9 -6.04,-8.08 -9.51,-11.57l-25.44 -24.98c-2.54,-2.26 -5.09,-4.26 -7.87,-6.34 -8.2,-6.13 -16.46,-12.28 -25.47,-17.16l-18.94 -9.94c-3.32,-1.66 -6.59,-2.81 -9.93,-4.29 -23.85,-10.55 -55.97,-17.41 -82.52,-17.41 -24.27,0 -40.46,1.17 -62.89,6.78 -14.52,3.63 -29.07,8.24 -42.39,14.91 -3.33,1.67 -6.13,3.07 -9.47,4.74 -6.27,3.14 -12.22,6.55 -18,10.42l-20.81 14.94c-0.86,0.67 -1.11,0.97 -1.97,1.69 -0.93,0.78 -1.1,0.77 -2.03,1.63l-11.22 10.32c-1.44,1.43 -2.53,1.9 -3.91,3.42 -1.28,1.4 -1.75,2.24 -3.2,3.68l-10.3 11.24c-1.11,1.27 -1.99,2.54 -3.04,3.83 -1.18,1.45 -2.15,2.56 -3.27,4.06 -6.1,8.15 -12.21,16.53 -17.12,25.51 -11.52,21.09 -18.98,38.22 -24.78,61.4 -3.64,14.56 -6.69,32.79 -6.69,50.61z"/>
   <path class="fil0" d="M177.85 428.13l14.4 3.48c7.2,1.42 23.78,4.24 31.42,4.33 2.65,0.03 6.12,-0.24 8.66,0.05 3.95,0.45 4.44,-0.08 8.3,-0.08 32.8,-0.05 57.4,-10.69 60.98,-10.99l-43.41 -118.4c-1.45,-3.69 -2.81,-7.25 -4.09,-11.04l-7.83 -21.51c-1.45,-3.69 -2.48,-7.05 -3.93,-10.73 -0.75,-1.9 -1.22,-3.45 -1.96,-5.37 -0.83,-2.14 -0.95,-4.18 -2.49,-5.31 -0.9,3.85 -2.51,7.26 -3.73,10.94l-11.23 32.78c-9.7,29.08 -20.45,58.58 -30.14,87.66 -1.9,5.72 -14.76,41.91 -14.95,44.18z"/>
   <path class="fil0" d="M146.68 415.75c-0.14,-1.73 -2.09,-6.59 -2.75,-8.25 -8.18,-20.63 -15.95,-44.76 -24.03,-65.81l-57.16 -156.44c-0.56,-1.56 -10.71,-31.42 -12.32,-32.6l-6.59 17.7c-2.14,6.42 -3.92,12.23 -5.51,19.24 -2.83,12.5 -3.4,19.89 -4.79,32.33 -0.86,7.72 0.15,26.87 0.89,34.73 2.01,21.28 9.58,47.4 19.36,66.81 1.51,3 2.79,5.15 4.27,8.1 1.39,2.75 2.96,5.18 4.54,7.83 6.31,10.55 13.16,19.21 20.96,28.54 3.96,4.74 16.56,17.07 21.6,21.03 1.3,1.02 2.4,1.81 3.58,2.84 5.85,5.12 31.62,22.47 37.94,23.94z"/>
   <path class="fil0" d="M412.54 156.31c0,28.84 -4.88,46.52 -14.14,71.58 -0.96,2.61 -1.72,4.67 -2.65,7.44l-7.79 22.46c-9.12,27.37 -19.64,55.5 -28.65,82.73l-7.91 22.8c-1.83,5.24 -3.42,9.83 -5.15,15.02l-7.8 22.46c-0.72,2.11 -2.29,6.09 -2.46,8.08 4.68,-3.14 10.16,-6.12 15,-9.75 5.38,-4.03 12.1,-9.02 17.2,-13.51l9.63 -9.16c1.08,-1.08 1.97,-1.87 2.99,-2.97 1.22,-1.31 1.6,-2.1 2.97,-3.45 8.49,-8.35 19.75,-24.93 26.04,-35.84 6.02,-10.45 11.21,-21.58 15.39,-34.12 1.11,-3.34 2.07,-5.94 3.02,-9.35 0.84,-3 1.79,-6.7 2.56,-9.81 0.88,-3.55 1.42,-6.41 2.11,-10.26 0.65,-3.59 1.34,-7.04 1.65,-10.72l1.1 -11.28c0.58,-3.9 -0.09,-8.14 0.35,-12.06 0.65,-5.88 -0.44,-16.67 -0.99,-22.98 -1.32,-15.2 -4.4,-26.67 -8.56,-40.95 -1.96,-6.73 -12.23,-31.96 -15.29,-34.21 0.47,5.66 1.37,11.23 1.37,17.88z"/>
  </g>
 </g>
</svg>
